# xmcd
#
# Track frame offsets:
#	150
#	19810
#	40575
#	60450
#	77775
#	93825
#	112360
#	131700
#	151435
#	170110
#	186912
#	206785
#	226735
#	243750
#	263637
#
# Disc length: 3772 seconds
#
# Revision: 6
# Processed by: cddbd v1.5.2PL0 Copyright (c) Steve Scherf et al.
# Submitted via: EasyCDDAExtractor 10.0.6.1
#
DISCID=c70eba0f
DTITLE=성시경 - MELODIE d' AMOUR
DYEAR=2002
DGENRE=Ballad
TTITLE0=넌 감동이었어
TTITLE1=선인장
TTITLE2=사랑해서 슬픈 날
TTITLE3=Love Letter
TTITLE4=우린 제법 잘 어울려요
TTITLE5=이렇게라도
TTITLE6=바램
TTITLE7=Happy Birthday To You
TTITLE8=좋을 텐데
TTITLE9=첫 눈에 반하다
TTITLE10=사랑이 변하나요
TTITLE11=슬픔이 슬픔을
TTITLE12=어느 멋진 날
TTITLE13=Sweet Dream
TTITLE14=사랑이겠죠(Duet with 김조한)
EXTD=YEAR: 2002
EXTT0=150
EXTT1=19810
EXTT2=40575
EXTT3=
EXTT4=
EXTT5=93825
EXTT6=
EXTT7=
EXTT8=
EXTT9=170110
EXTT10=
EXTT11=206785
EXTT12=226735
EXTT13=
EXTT14=
PLAYORDER=
